<svg width="530" height="127" viewBox="0 0 530 127" fill="none" xmlns="http://www.w3.org/2000/svg">
<path d="M395.758 123.864H356.32V2.84411H395.758V123.864ZM408.014 2.84411H446.982V21.5135C450.13 14.8932 460.354 0.00530147 484.299 0.00530147C524.002 0.00530147 529.172 31.836 529.172 46.3373V123.87H489.495V55.7912C489.495 42.1956 485.447 30.5014 469.418 30.5014C453.39 30.5014 447.453 43.7156 447.453 59.1013V123.87H408.014V2.84411ZM75.1311 0.00530147C66.9449 0.00530147 60.1874 3.63326 56.097 7.89678C50.763 13.4579 48.6569 19.9988 44.0214 19.9988C41.312 19.9988 39.4388 17.6102 39.4388 14.3953V2.84411H0V123.87H39.4388V39.4998C39.4388 36.2849 41.312 33.8963 44.0214 33.8963C49.059 33.8963 49.4136 39.1343 56.097 45.9983C60.5367 50.5531 67.6963 53.8898 75.1311 53.8898C89.9954 53.8898 102.045 41.8301 102.045 26.9528C102.045 12.0755 89.9954 0.00530147 75.1311 0.00530147ZM189.299 86.2819C187.68 90.0847 182.965 98.8077 168.058 98.8077C151.331 98.8077 143.695 86.891 142.081 72.0985H226.864V61.4635C226.864 27.2071 206.089 0.00530147 167.587 0.00530147C130.53 0.00530147 104.055 24.9508 104.055 63.3543C104.055 100.381 128.804 126.703 168.058 126.703C206.343 126.703 222.25 103.421 225.965 86.2819H189.299ZM151.289 33.5732C155.538 29.6381 160.973 27.6625 167.587 27.6625C174.514 27.6625 180.023 29.8287 184.118 34.1611C188.209 38.4988 190.257 44.1287 190.257 51.0616H142.785C144.203 43.3449 147.04 37.5137 151.289 33.5732ZM312.235 50.8285C305.361 49.6845 294.174 47.7567 288.856 46.8087C277.061 44.7113 272.796 40.1247 272.796 35.1939C272.796 30.1094 277.23 25.5334 287.025 25.5334C299.429 25.5334 308.711 35.2045 312.235 41.1257L342.958 29.0714C334.677 12.5257 317.638 0 289.094 0C260.71 0 236.194 14.8826 236.194 40.6544C236.194 56.8769 247.523 70.8697 271.854 75.6364L293.344 79.1796C299.958 80.4454 310.113 82.7652 310.113 89.8146C310.113 95.2751 304.509 98.7971 294.582 98.7971C282.242 98.7971 272.362 91.9278 265.377 82.7069L233.283 95.2962C242.02 113.69 265.414 126.687 292.64 126.687C322.829 126.687 346.959 111.704 346.959 86.5044C346.953 61.0928 327.565 53.3813 312.235 50.8285Z" fill="black"/>
</svg>
